<svg xmlns="http://www.w3.org/2000/svg" width="195.732" height="27.648" viewBox="0 0 195.732 27.648">
  <path id="Path_2593" data-name="Path 2593" d="M20.232-17.568,14.364,0h-4.5L.468-26.928H6.336L12.168-8.856l5.868-18.072h4.392L28.3-8.856l5.868-18.072H40L30.6,0H26.1Zm28.332,1.44h10.3v4.644h-10.3v6.732h11.88V0H43.236V-26.928H60.408v4.716H48.564Zm25.308-11.16A11.01,11.01,0,0,1,81-25.11a7.576,7.576,0,0,1,2.808,5.994l-5.436.288a3.8,3.8,0,0,0-1.242-2.808,4.557,4.557,0,0,0-3.15-1.044,4.543,4.543,0,0,0-3.042.936,3.062,3.062,0,0,0-1.1,2.448,2.487,2.487,0,0,0,.558,1.71,3.963,3.963,0,0,0,1.638,1.026,30.9,30.9,0,0,0,3.168.9,29.894,29.894,0,0,1,5.04,1.692,7.753,7.753,0,0,1,3.042,2.376,6.166,6.166,0,0,1,1.1,3.78,7.127,7.127,0,0,1-2.772,6.12A11.608,11.608,0,0,1,74.52.36a14.507,14.507,0,0,1-5.544-.99,8.55,8.55,0,0,1-3.8-2.916,7.9,7.9,0,0,1-1.422-4.626l5.472-.288a3.769,3.769,0,0,0,1.53,3.06A5.979,5.979,0,0,0,74.52-4.248a5.605,5.605,0,0,0,3.2-.81,2.781,2.781,0,0,0,1.188-2.466,2.5,2.5,0,0,0-1.3-2.286,17.247,17.247,0,0,0-4.392-1.53,28.984,28.984,0,0,1-4.734-1.53,7.421,7.421,0,0,1-2.952-2.3A6.353,6.353,0,0,1,64.4-19.116a8.145,8.145,0,0,1,1.062-4.122,7.523,7.523,0,0,1,3.2-2.952A11.3,11.3,0,0,1,73.872-27.288Zm27.864,0a14.861,14.861,0,0,1,7.146,1.692,12.351,12.351,0,0,1,4.95,4.824,14.409,14.409,0,0,1,1.8,7.308,14.409,14.409,0,0,1-1.8,7.308,12.35,12.35,0,0,1-4.95,4.824A14.861,14.861,0,0,1,101.736.36a15.149,15.149,0,0,1-7.218-1.692,12.291,12.291,0,0,1-4.986-4.824,14.409,14.409,0,0,1-1.8-7.308,14.409,14.409,0,0,1,1.8-7.308A12.291,12.291,0,0,1,94.518-25.6,15.149,15.149,0,0,1,101.736-27.288Zm0,4.716a8.819,8.819,0,0,0-4.446,1.1,7.618,7.618,0,0,0-3.006,3.15,10.3,10.3,0,0,0-1.08,4.86,10.3,10.3,0,0,0,1.08,4.86,7.618,7.618,0,0,0,3.006,3.15,8.819,8.819,0,0,0,4.446,1.1,8.746,8.746,0,0,0,4.41-1.1,7.5,7.5,0,0,0,2.988-3.15,10.444,10.444,0,0,0,1.062-4.86,10.444,10.444,0,0,0-1.062-4.86,7.5,7.5,0,0,0-2.988-3.15A8.746,8.746,0,0,0,101.736-22.572ZM137.448,0H120.2V-26.928h5.328V-4.752h11.916Zm-3.96-26.928h5.832L147.06-8.28l7.7-18.648h5.868L149.328,0h-4.536Zm30.384,0H169.2V0h-5.328ZM187.128,0h-5.364V-22.212h-9.108v-4.716H196.2v4.716h-9.072Z" transform="translate(-0.468 27.288)" fill="#284469"/>
</svg>
